<svg width="1020" height="834" viewBox="0 0 1020 834" fill="none" xmlns="http://www.w3.org/2000/svg">
<path d="M335.5 413.617C335.5 472.517 357.23 523.247 388.235 544.907C388.235 542.057 387.97 539.207 387.97 536.357C388.103 498.737 397.245 461.117 413.277 429.197C412.615 428.057 412.085 426.727 411.29 425.587C404.135 412.667 395.125 396.707 395.125 366.307C395.125 335.907 404.135 319.947 411.29 307.027C417.517 295.817 421.625 288.407 421.625 271.497C374.19 271.497 335.5 335.337 335.5 413.997V413.617ZM447.86 277.957C446.667 303.987 438.585 318.617 431.96 330.587C425.732 341.797 421.625 349.207 421.625 366.117C421.625 383.027 425.335 389.867 431.165 400.127C446.138 379.987 463.628 364.787 482.045 356.237C487.61 353.577 493.175 351.677 498.74 350.157C488.537 315.767 470.252 289.547 447.86 277.957ZM520.603 520.967C519.145 537.687 517.158 558.207 501.788 580.247C486.418 602.287 471.975 604.947 460.448 607.227C451.703 608.937 444.945 610.077 437.26 619.387C452.498 641.047 472.77 651.687 494.103 651.687C519.94 651.687 547.102 636.107 568.302 605.707C599.705 560.867 608.317 496.837 592.682 448.577C579.83 463.017 567.773 465.487 557.835 467.197C547.898 469.097 540.742 470.427 531.732 483.347C522.722 496.267 521.795 506.527 520.47 520.777L520.603 520.967Z" fill="#8E4815"/>
<path d="M490.393 392.337C473.887 400.122 458.903 413.405 446.668 431.097C426.395 460.167 414.735 498.547 414.603 536.547C414.603 554.977 417.253 572.457 422.288 588.227C435.14 573.787 447.198 571.507 457.135 569.607C467.073 567.707 474.228 566.377 483.238 553.457C492.248 540.537 493.175 530.277 494.5 516.027C495.958 499.307 497.945 478.787 513.315 456.747C528.685 434.707 543.128 432.047 554.655 429.767C563.533 428.057 570.158 426.917 577.843 417.607C556.245 386.827 522.723 377.137 490.525 392.337H490.393Z" fill="#8E4815"/>
<path d="M462.843 196.753C568.079 199.242 664.238 312.886 661.162 468.296C658.085 623.706 557.518 732.697 452.282 730.208C347.046 727.719 250.887 614.075 253.963 458.665C257.04 303.255 357.607 194.264 462.843 196.753Z" stroke="#FFCC00" stroke-width="70"/>
<path d="M74.9124 3.90683C29.8363 -22.6215 -38.0958 93.7016 26.6617 119.532C91.4193 145.362 161.256 125.698 171.414 143.151C181.572 160.604 260.27 489.6 211.384 541.231C211.384 541.231 65.3626 585.59 113.613 472.874C161.864 360.158 56.4744 409.608 56.4744 409.608C-42.5664 432.878 43.7768 588.455 56.4744 601.589C117.423 675.763 311.653 655.455 332.609 620.748C353.565 586.042 191.667 41.3431 332.609 143.151C473.552 244.959 515.517 28.2535 354.258 38.4343C193 48.6151 119.989 30.4351 74.9124 3.90683Z" fill="black"/>
<path d="M723.238 299.397C770.213 236.401 674.137 176.038 597.025 188.097C561.822 270.515 663.09 481.606 662.875 504.735C662.661 527.863 641.941 624.478 509.747 726.976C523.22 740.876 549.426 717.437 580.828 739.037C607.774 786.96 622.935 733.737 764.511 547.832C847.177 410.78 966.131 435.082 972.813 438.042C1015.24 407.221 912.771 317.933 867.38 313.057C867.38 313.057 807.309 330.738 779.547 406.508C751.786 482.279 729.643 439.853 710.314 414.32C708.962 403.984 679.9 357.515 723.238 299.397Z" fill="black"/>
</svg>
